<?xml version="1.0" standalone="no"?>
<!DOCTYPE svg PUBLIC "-//W3C//DTD SVG 20010904//EN"
 "http://www.w3.org/TR/2001/REC-SVG-20010904/DTD/svg10.dtd">
<svg version="1.0" xmlns="http://www.w3.org/2000/svg"
 width="500.000000pt" height="500.000000pt" viewBox="0 0 500.000000 500.000000"
 preserveAspectRatio="xMidYMid meet">
<metadata>
Created by potrace 1.11, written by Peter Selinger 2001-2013
</metadata>
<g transform="translate(0.000000,500.000000) scale(0.100000,-0.100000)"
fill="#000000" stroke="none">
<path d="M2826 3508 c-10 -15 -19 -35 -21 -45 -2 -10 -4 -20 -5 -23 -1 -3 -2
-8 -2 -11 1 -9 -51 2 -67 14 -7 6 -17 20 -21 31 -7 19 -8 18 -25 -7 -12 -18
-15 -35 -10 -54 7 -29 5 -40 -7 -35 -5 1 -8 -3 -8 -9 0 -5 -4 -8 -9 -4 -5 3
-12 1 -16 -4 -5 -9 -74 -9 -110 -1 -5 1 -12 2 -15 1 -5 -2 -104 -11 -142 -14
-10 -1 -18 -4 -18 -8 0 -4 -18 -10 -40 -14 -22 -4 -40 -12 -40 -18 0 -5 -3 -8
-6 -4 -5 5 -38 -11 -91 -43 -16 -10 -37 -5 -135 33 -63 26 -130 49 -148 52
-18 3 -37 8 -42 11 -5 3 -21 7 -36 10 -15 2 -51 9 -81 15 -166 33 -463 27
-616 -13 -71 -18 -80 -20 -97 -21 -10 -1 -18 -4 -18 -8 0 -4 -15 -10 -32 -14
-40 -9 -35 -8 -82 -28 -21 -9 -41 -17 -45 -17 -15 0 -167 -83 -179 -98 -6 -9
-12 -13 -12 -9 0 9 -46 -20 -74 -45 -11 -10 -23 -18 -27 -18 -9 0 -61 -43
-106 -88 -18 -19 -33 -31 -33 -27 0 4 -12 -8 -26 -25 -16 -18 -33 -29 -41 -26
-8 3 -11 1 -8 -4 7 -11 -103 -150 -118 -150 -4 0 -5 -4 -2 -10 3 -5 1 -10 -4
-10 -6 0 -11 -7 -11 -15 0 -9 -7 -18 -15 -21 -8 -4 -15 -12 -15 -18 0 -7 -8
-21 -17 -32 -18 -20 -43 -60 -43 -68 0 -2 14 -6 30 -8 17 -3 30 -2 30 1 0 3
15 7 33 8 44 2 117 36 167 78 23 19 39 35 35 35 -4 0 8 15 27 34 18 19 37 31
42 28 5 -3 6 -1 3 5 -5 8 26 41 108 112 11 10 54 40 95 67 41 27 77 52 78 57
2 4 8 5 13 1 5 -3 9 0 9 6 0 6 5 8 10 5 6 -3 10 -1 10 6 0 6 8 9 20 6 11 -3
18 -1 15 3 -7 11 30 32 39 23 3 -3 6 -1 6 5 0 7 7 12 16 12 9 0 28 6 42 14 46
23 76 36 97 39 11 2 27 7 35 10 8 4 29 8 45 11 17 2 30 5 30 6 0 3 41 10 85
14 19 1 46 6 59 10 18 6 22 5 16 -4 -6 -10 -4 -11 6 -4 8 5 17 9 22 10 4 1 8
2 10 4 7 6 115 5 111 -2 -3 -4 7 -3 21 2 20 8 24 7 19 -3 -6 -9 -4 -9 7 -1 8
6 23 10 34 7 11 -2 30 -4 42 -5 13 0 20 -4 18 -9 -3 -4 0 -11 6 -15 7 -4 9 -3
5 4 -3 6 -2 13 4 17 5 3 10 2 10 -2 0 -5 12 -8 28 -7 15 1 33 -4 41 -10 11 -8
13 -8 8 1 -5 7 11 6 50 -4 32 -8 63 -16 68 -18 6 -1 18 -5 27 -10 10 -4 29 -8
43 -9 14 0 25 -4 25 -8 0 -5 6 -8 13 -8 19 0 67 -24 67 -33 0 -5 4 -6 9 -2 11
6 62 -15 57 -24 -2 -3 8 -7 22 -8 15 0 28 -6 30 -12 2 -6 8 -9 13 -5 5 3 9 0
9 -6 0 -6 5 -8 10 -5 6 3 10 2 10 -2 0 -5 18 -17 40 -27 22 -10 40 -22 40 -27
0 -5 7 -9 15 -9 8 0 15 -4 15 -10 0 -5 7 -10 16 -10 8 0 29 -13 47 -30 18 -16
35 -30 40 -30 4 0 7 -7 7 -15 0 -8 5 -14 12 -13 7 2 12 -1 13 -7 0 -5 3 -15 7
-21 12 -18 -17 -46 -47 -46 -16 0 -31 5 -33 11 -2 6 -10 11 -18 11 -7 0 -19 9
-26 20 -7 11 -16 20 -21 20 -4 0 -35 18 -68 40 -66 44 -215 120 -235 120 -7 0
-14 4 -16 10 -1 5 -14 11 -28 14 -14 2 -26 5 -27 7 -2 1 -7 3 -13 4 -5 1 -11
3 -12 5 -3 2 -9 3 -78 20 -73 19 -132 29 -195 36 -51 5 -253 5 -280 0 -11 -2
-40 -7 -65 -10 -25 -3 -60 -10 -79 -16 -19 -5 -38 -7 -42 -4 -5 3 -9 1 -9 -4
0 -9 -65 -28 -83 -24 -4 1 -7 -3 -7 -9 0 -5 -4 -8 -8 -5 -10 6 -209 -89 -234
-111 -10 -9 -18 -13 -18 -9 0 7 -14 -4 -51 -36 -10 -10 -19 -15 -19 -12 0 3
-6 -1 -14 -8 -37 -36 -101 -83 -109 -80 -5 1 -6 -2 -2 -7 6 -10 -33 -37 -48
-33 -4 1 -6 -1 -6 -5 3 -20 -2 -34 -10 -29 -5 3 -11 -4 -14 -15 -4 -14 -10
-18 -19 -13 -7 4 -10 3 -5 -1 4 -5 -3 -20 -15 -33 -13 -14 -17 -22 -10 -18 6
4 12 4 12 -1 0 -4 11 -8 24 -8 13 0 22 4 19 8 -2 4 7 6 20 3 14 -2 28 -1 32 2
4 4 10 7 13 7 23 2 104 50 142 84 25 22 51 41 58 41 6 0 12 3 12 8 0 4 17 16
38 27 20 11 43 26 50 32 13 13 28 17 45 14 5 -1 6 3 2 9 -3 5 -1 11 4 11 16 2
23 4 61 21 19 9 38 14 42 12 5 -3 8 0 8 6 0 6 8 10 18 8 11 -2 26 3 34 9 8 7
23 14 34 16 10 2 27 7 37 12 9 4 26 5 37 2 11 -3 18 -1 14 4 -3 5 3 9 13 10
10 0 27 2 38 5 11 2 49 6 85 9 36 3 77 7 93 9 15 2 27 0 27 -3 0 -4 9 -7 20
-7 11 0 20 4 20 9 0 4 5 5 11 1 6 -3 38 -8 72 -10 34 -3 73 -7 87 -11 14 -3
32 -7 40 -9 56 -11 97 -20 105 -24 3 -1 8 -4 13 -5 4 -1 22 -8 41 -15 l34 -13
-24 -13 c-13 -7 -19 -13 -14 -14 6 0 21 7 33 16 14 10 22 11 22 3 0 -6 7 -9
15 -5 8 3 19 -2 23 -11 5 -9 22 -17 38 -19 16 -2 30 -8 32 -14 2 -5 8 -8 13
-4 5 3 9 -2 9 -10 0 -10 6 -13 17 -9 12 5 15 2 10 -10 -4 -11 -2 -14 8 -11 16
6 125 -61 125 -76 0 -6 4 -9 9 -6 5 3 16 -5 25 -19 14 -21 14 -26 1 -39 -16
-15 -67 -12 -73 5 -2 5 -7 9 -12 9 -17 0 -110 67 -102 74 4 4 2 6 -3 4 -6 -2
-44 13 -85 32 -41 19 -84 36 -94 37 -11 2 -27 10 -35 18 -9 7 -20 14 -26 14
-31 3 -75 14 -75 20 0 4 -12 6 -27 5 -16 -1 -32 1 -38 4 -17 11 -96 16 -235
15 -138 0 -165 -3 -260 -29 -75 -20 -83 -22 -98 -23 -7 -1 -10 -6 -7 -12 4 -6
1 -9 -6 -8 -8 1 -30 -4 -49 -12 -19 -7 -38 -12 -42 -11 -5 1 -8 -2 -8 -8 0 -5
-9 -10 -20 -10 -11 0 -20 -4 -20 -9 0 -5 -10 -13 -22 -17 -13 -4 -25 -10 -28
-13 -3 -4 -23 -18 -45 -31 -59 -36 -120 -88 -113 -95 5 -5 88 -6 123 -2 17 3
47 12 69 21 21 9 42 13 47 10 5 -3 9 -1 9 3 0 10 109 59 122 55 4 -1 8 2 8 6
0 12 88 40 142 45 16 1 28 4 28 8 0 7 20 8 170 10 162 2 163 2 154 -13 -6 -10
-4 -10 7 0 16 14 33 16 24 2 -3 -6 1 -7 9 -4 10 4 16 1 16 -7 0 -9 3 -10 8 -4
8 11 42 16 42 6 0 -3 11 -7 24 -7 13 -1 38 -9 57 -17 19 -9 49 -19 67 -22 21
-4 32 -12 29 -19 -3 -7 1 -13 9 -13 7 0 11 4 8 9 -3 4 2 5 10 2 9 -3 13 -10
10 -15 -3 -5 2 -6 10 -3 10 4 16 1 16 -7 0 -7 3 -10 6 -6 9 8 64 -21 64 -34 0
-6 4 -8 9 -4 5 3 16 -2 24 -10 9 -8 20 -15 26 -15 6 0 11 -4 11 -10 0 -5 7
-10 15 -10 9 0 19 -8 22 -17 4 -10 10 -20 15 -23 4 -3 -1 -14 -12 -23 -11 -9
-20 -12 -20 -7 0 6 -4 9 -9 7 -10 -2 -124 64 -129 75 -2 5 -8 6 -13 2 -5 -3
-9 -1 -9 5 0 6 -16 13 -35 17 -19 3 -35 10 -35 14 0 13 -172 65 -255 77 -64 9
-248 9 -300 0 -119 -21 -217 -48 -246 -68 -14 -10 -28 -16 -31 -13 -3 2 -11
-2 -18 -11 -11 -13 -9 -15 11 -16 13 -1 27 -1 32 0 4 0 7 -2 7 -7 0 -9 81 -9
97 1 7 5 13 4 13 -2 0 -9 49 -5 59 4 2 2 12 0 22 -6 11 -5 19 -6 19 -2 0 10
51 14 165 15 128 1 177 -1 172 -9 -3 -5 14 -9 36 -10 60 -4 67 -5 67 -16 0 -6
3 -7 7 -4 3 4 17 0 30 -8 17 -12 23 -12 23 -3 0 9 3 9 8 2 4 -6 21 -17 39 -24
17 -8 30 -17 28 -21 -3 -3 7 -5 20 -3 14 1 25 -1 25 -4 0 -4 18 -16 40 -26 27
-13 37 -23 30 -30 -6 -8 -1 -12 18 -11 28 0 43 -28 25 -46 -10 -10 -122 44
-135 65 -4 6 -8 8 -8 3 0 -4 -21 4 -48 17 -45 23 -97 40 -152 50 -14 2 -25 5
-25 7 0 3 -35 7 -87 12 -26 2 -51 7 -55 10 -11 12 -25 8 -17 -5 6 -10 5 -10
-7 -1 -12 10 -18 10 -27 1 -16 -16 -15 -28 3 -28 8 0 15 -5 15 -11 0 -5 4 -7
10 -4 5 3 22 -1 38 -9 16 -8 32 -12 36 -9 3 4 6 0 6 -7 0 -7 3 -10 6 -7 11 11
46 -14 40 -28 -3 -8 0 -17 6 -21 7 -4 8 -3 4 4 -5 8 1 12 14 12 12 0 19 -4 16
-9 -3 -5 3 -11 14 -14 11 -3 20 -10 20 -17 0 -6 -5 -8 -12 -4 -7 4 -8 3 -4 -4
4 -6 13 -9 21 -5 15 5 45 -12 45 -26 0 -4 -16 -6 -36 -6 -20 1 -41 -3 -47 -9
-7 -6 -16 -11 -22 -11 -33 -1 -85 -18 -96 -32 -8 -10 -9 -14 -2 -10 6 4 14 3
18 -3 4 -6 12 -7 22 -1 9 5 29 5 45 0 32 -9 34 -9 49 -9 5 0 7 -6 4 -12 -4 -7
0 -6 7 3 12 15 16 15 32 3 11 -7 24 -11 29 -7 7 4 8 -1 3 -12 -5 -15 -4 -16 9
-5 10 8 15 9 15 1 0 -6 5 -11 12 -11 6 0 26 -11 43 -25 18 -13 35 -21 39 -18
3 4 6 -1 6 -10 0 -9 5 -19 12 -23 7 -5 8 -2 3 7 -5 8 4 3 18 -10 15 -13 24
-28 20 -34 -3 -6 -1 -7 6 -3 6 4 22 1 34 -6 49 -32 56 -30 71 21 26 87 67 155
137 223 38 38 76 68 84 68 8 0 15 4 15 9 0 5 27 19 60 31 48 18 65 30 84 61
12 22 26 36 31 32 4 -5 5 -3 1 4 -7 12 39 86 71 114 10 9 30 30 45 47 29 33
140 112 157 112 6 0 11 5 11 11 0 6 7 9 15 5 8 -3 15 -1 15 3 0 5 7 12 16 15
9 4 13 2 8 -5 -3 -6 4 -5 17 3 13 8 33 14 44 14 11 -1 23 3 27 8 4 6 12 5 21
-3 10 -8 17 -8 22 -2 3 6 24 10 46 8 29 -1 38 -6 34 -16 -4 -10 -2 -11 7 -4
14 12 78 5 78 -7 0 -4 8 -7 18 -6 11 1 16 -6 15 -19 -1 -19 -1 -19 12 -2 11
16 13 16 19 2 3 -9 10 -13 16 -10 6 3 13 -2 17 -12 9 -23 49 -63 63 -63 20 0
16 115 -6 147 -8 13 -12 23 -9 23 3 0 -16 22 -43 49 -48 48 -50 52 -50 108 -1
74 -5 92 -23 104 -8 5 -11 9 -6 9 4 0 -13 19 -38 43 -25 24 -42 46 -39 49 3 4
-3 9 -14 12 -11 4 -23 14 -26 24 -4 9 -13 30 -22 45 -9 15 -16 43 -17 62 -2
40 -9 43 -35 17 -14 -14 -21 -16 -30 -6 -6 6 -9 13 -7 15 1 2 0 22 -4 44 l-7
40 -18 -27z m240 -416 c6 -4 13 -15 17 -24 5 -15 4 -16 -13 -6 -20 13 -35 38
-22 38 4 0 12 -4 18 -8z"/>
<path d="M3455 3402 c-3 -4 -18 -8 -33 -9 -31 -2 -81 -9 -132 -18 -19 -4 -44
-8 -55 -8 -11 -1 -22 -5 -25 -9 -3 -4 -17 -8 -30 -10 -14 -2 -31 -7 -37 -11
-7 -5 -13 -6 -13 -3 0 3 -15 -1 -34 -9 -18 -8 -36 -11 -40 -8 -18 18 -3 -20
17 -40 40 -42 59 -69 69 -97 6 -18 18 -30 33 -33 14 -2 22 -1 20 3 -3 5 2 10
10 14 8 3 15 0 15 -7 0 -7 6 -3 12 7 11 19 11 19 26 0 14 -18 14 -18 8 0 -4
13 -2 17 7 13 7 -3 21 1 31 9 17 12 21 11 33 -4 11 -14 12 -14 8 -1 -5 12 0
16 22 14 15 -1 31 3 35 9 5 7 8 7 8 -2 0 -8 5 -10 13 -5 6 4 23 9 37 10 14 1
38 5 54 9 22 5 27 4 21 -6 -6 -10 -4 -11 6 -4 8 5 24 10 36 12 18 2 21 -1 17
-15 -5 -15 -4 -15 5 -3 11 16 66 25 56 10 -3 -5 8 -5 25 0 25 7 30 6 31 -8 0
-11 2 -12 6 -4 2 6 9 12 14 12 6 0 7 -5 3 -12 -5 -7 -3 -8 7 -2 20 12 30 12
67 -2 18 -7 31 -10 28 -5 -3 4 8 5 25 3 16 -2 29 -8 29 -14 0 -5 6 -8 13 -7
35 4 58 -2 51 -13 -6 -10 -4 -10 8 0 11 9 18 10 23 2 3 -6 11 -8 16 -5 5 4 9
2 9 -4 0 -6 7 -8 16 -4 9 3 19 0 24 -6 4 -7 13 -14 21 -16 38 -9 59 -18 59
-27 0 -5 4 -6 10 -3 15 9 72 -24 64 -38 -5 -9 -4 -9 6 0 10 9 16 8 27 -3 8 -8
20 -11 26 -7 8 4 7 1 -1 -9 -10 -13 -10 -18 -1 -24 8 -5 9 -3 4 5 -5 9 0 12
16 9 16 -2 24 -9 23 -21 -2 -14 1 -15 12 -6 11 9 14 9 14 0 0 -7 5 -9 10 -6 6
3 10 2 10 -4 0 -5 -3 -11 -7 -14 -5 -2 -2 -2 5 0 17 4 54 -21 45 -31 -4 -4 0
-4 9 -1 11 4 21 -1 30 -14 7 -12 17 -21 22 -21 5 0 22 -13 38 -30 15 -16 33
-30 38 -30 6 0 15 -12 20 -26 6 -15 14 -22 22 -18 7 4 8 3 4 -4 -4 -7 -1 -12
9 -12 9 0 13 -4 10 -10 -3 -5 -1 -10 4 -10 6 0 11 -7 11 -16 0 -8 4 -13 9 -10
4 3 22 -12 39 -33 17 -21 47 -46 67 -55 19 -9 33 -21 31 -25 -3 -4 1 -8 9 -8
8 0 11 5 8 10 -4 6 -1 7 8 1 19 -12 36 -15 97 -20 28 -3 52 -2 52 2 0 7 -40
76 -49 84 -4 3 -12 17 -20 33 -8 15 -18 27 -23 27 -4 0 -8 5 -8 10 0 6 -10 22
-22 36 -13 13 -34 38 -48 55 -57 71 -201 204 -280 259 -47 33 -91 65 -97 70
-7 6 -13 7 -13 3 0 -4 -4 -3 -8 3 -4 6 -25 20 -47 32 -50 25 -235 103 -255
107 -8 1 -33 8 -55 14 -22 6 -51 12 -65 15 -14 2 -25 5 -25 6 0 1 -11 3 -25 5
-14 1 -47 6 -75 10 -111 17 -294 24 -301 13 -3 -4 -15 -3 -28 2 -13 5 -27 6
-31 2z"/>
<path d="M3056 3262 c-3 -5 1 -9 9 -9 8 0 12 4 9 9 -3 4 -7 8 -9 8 -2 0 -6 -4
-9 -8z"/>
<path d="M1810 3146 c0 -2 7 -7 16 -10 8 -3 12 -2 9 4 -6 10 -25 14 -25 6z"/>
<path d="M3527 3104 c-2 -2 -142 -17 -174 -18 -13 -1 -23 -5 -23 -9 0 -4 -6
-7 -12 -5 -7 1 -44 -6 -83 -16 -61 -16 -70 -22 -70 -41 0 -13 3 -21 8 -18 4 2
14 -2 22 -11 18 -17 20 -30 3 -20 -7 4 -8 3 -4 -4 4 -6 13 -9 21 -5 9 3 15 -1
15 -11 0 -9 3 -16 8 -17 42 -4 60 -3 55 5 -3 5 8 7 25 4 17 -2 29 -1 26 4 -3
4 3 8 13 9 10 0 27 2 38 4 45 9 71 9 84 1 10 -6 12 -5 7 2 -5 9 24 12 109 12
82 0 114 -3 109 -11 -5 -8 -1 -8 13 0 11 6 22 8 24 6 5 -4 50 -13 99 -20 14
-2 37 -8 51 -13 15 -6 30 -8 33 -5 3 4 6 1 6 -6 0 -7 5 -9 10 -6 6 3 10 -2 10
-12 0 -12 3 -14 8 -6 9 14 52 6 52 -9 0 -5 -4 -6 -10 -3 -5 3 -10 1 -10 -4 0
-14 13 -14 26 -1 12 12 68 -12 56 -25 -4 -4 4 -4 17 0 20 6 23 5 17 -10 -5
-15 -4 -16 9 -5 10 8 15 9 15 1 0 -6 6 -11 13 -11 7 0 23 -9 34 -19 12 -11 24
-17 27 -14 3 4 6 1 6 -6 0 -7 4 -10 9 -7 5 3 21 -6 35 -19 15 -14 32 -22 38
-19 7 4 8 2 4 -4 -4 -7 -3 -12 3 -12 5 0 21 -10 35 -22 50 -47 66 -58 91 -64
30 -7 44 -25 15 -19 -11 2 -22 0 -24 -4 -6 -10 34 -8 50 2 6 3 14 3 18 -1 4
-4 32 -7 61 -7 39 0 52 3 47 12 -10 17 -136 145 -169 170 -25 19 -57 45 -90
73 -7 5 -15 10 -19 10 -4 0 -22 11 -40 25 -39 30 -215 115 -262 126 -4 1 -21
8 -38 15 -17 7 -34 10 -38 7 -3 -4 -6 -1 -6 6 0 7 -4 10 -8 7 -5 -3 -24 -1
-43 4 -50 13 -96 20 -170 26 -89 6 -179 11 -182 8z"/>
<path d="M4175 3060 c3 -5 8 -10 11 -10 2 0 4 5 4 10 0 6 -5 10 -11 10 -5 0
-7 -4 -4 -10z"/>
<path d="M2070 3046 c0 -2 7 -7 16 -10 8 -3 12 -2 9 4 -6 10 -25 14 -25 6z"/>
<path d="M2175 2980 c-3 -5 -1 -10 4 -10 6 0 11 5 11 10 0 6 -2 10 -4 10 -3 0
-8 -4 -11 -10z"/>
<path d="M3590 2934 c0 -7 -12 -12 -27 -12 -31 0 -128 -9 -128 -12 0 -1 -13
-3 -30 -5 -112 -16 -130 -21 -127 -34 1 -6 -3 -11 -9 -11 -8 0 -8 -4 -1 -13 8
-9 7 -21 -3 -40 -8 -15 -9 -25 -4 -21 7 4 9 -1 5 -14 -5 -14 -1 -21 14 -25 13
-3 18 -1 13 6 -4 6 0 8 10 4 10 -4 17 -2 17 5 0 6 6 5 17 -3 11 -10 14 -10 9
-1 -5 8 1 13 21 14 29 1 50 4 68 8 6 1 14 2 19 1 5 -1 13 4 17 11 7 10 9 10 9
-1 0 -9 4 -10 13 -4 14 11 167 11 185 0 7 -5 12 -3 12 3 0 6 5 8 12 4 7 -5 19
-9 28 -10 8 -2 31 -5 50 -9 19 -3 51 -8 70 -10 19 -2 36 -8 38 -13 2 -6 12 -8
22 -5 11 3 20 0 20 -6 0 -6 9 -11 20 -11 11 0 20 -5 20 -10 0 -6 3 -9 8 -8 15
3 62 -15 62 -24 0 -5 -5 -6 -12 -2 -7 4 -8 3 -4 -5 6 -9 11 -9 24 1 14 11 15
10 9 -12 -5 -22 -5 -23 7 -8 9 13 16 14 24 6 6 -6 22 -13 34 -14 46 -7 56 -10
74 -24 11 -9 15 -10 10 -2 -4 7 -1 12 8 12 9 0 16 -6 16 -12 0 -10 2 -10 9 0
4 8 12 14 16 14 4 0 12 -6 16 -14 7 -10 9 -10 9 0 0 7 6 12 13 11 32 -4 40 1
27 16 -7 8 -16 15 -21 15 -8 0 -35 20 -64 47 -7 7 -15 9 -19 6 -3 -4 -6 1 -6
11 0 9 -4 15 -9 11 -5 -3 -15 1 -23 8 -16 16 -121 67 -136 67 -7 0 -12 5 -12
11 0 5 -4 7 -10 4 -5 -3 -10 -1 -10 5 0 7 -6 10 -14 7 -8 -3 -16 -2 -18 3 -2
5 -15 11 -30 14 -15 2 -33 8 -40 13 -7 4 -24 9 -38 11 -13 2 -28 9 -32 15 -6
9 -8 9 -8 0 0 -9 -7 -10 -25 -3 -14 5 -39 11 -55 12 -17 1 -30 7 -30 13 0 5
-5 3 -10 -5 -5 -8 -10 -10 -10 -4 0 14 -42 13 -52 -1 -5 -6 -8 -6 -8 2 0 6 -8
10 -17 9 -10 -2 -21 2 -25 8 -6 8 -8 8 -8 0z"/>
<path d="M4410 2925 c0 -5 5 -17 10 -25 5 -8 10 -10 10 -5 0 6 -5 17 -10 25
-5 8 -10 11 -10 5z"/>
<path d="M1815 2911 c-3 -5 -2 -12 3 -15 5 -3 9 1 9 9 0 17 -3 19 -12 6z"/>
<path d="M2330 2879 c0 -5 5 -7 10 -4 6 3 10 8 10 11 0 2 -4 4 -10 4 -5 0 -10
-5 -10 -11z"/>
<path d="M4445 2860 c-3 -6 1 -7 9 -4 18 7 21 14 7 14 -6 0 -13 -4 -16 -10z"/>
<path d="M2007 2819 c7 -7 15 -10 18 -7 3 3 -2 9 -12 12 -14 6 -15 5 -6 -5z"/>
<path d="M2350 2819 c0 -5 5 -7 10 -4 6 3 10 8 10 11 0 2 -4 4 -10 4 -5 0 -10
-5 -10 -11z"/>
<path d="M2820 2808 c-27 -12 -38 -13 -49 -5 -8 7 -12 7 -9 2 4 -6 -14 -21
-41 -33 -26 -13 -60 -34 -75 -48 -15 -15 -34 -23 -42 -20 -9 3 -12 1 -9 -4 7
-11 -18 -40 -34 -40 -6 0 -10 -3 -8 -8 1 -4 -8 -18 -20 -32 -13 -13 -23 -28
-23 -32 0 -5 -4 -6 -10 -3 -5 3 -10 -1 -10 -9 0 -9 -5 -16 -11 -16 -5 0 -8 -4
-5 -9 3 -5 -1 -11 -9 -15 -8 -3 -15 -12 -15 -21 0 -8 -5 -15 -10 -15 -6 0 -5
-6 2 -14 7 -8 15 -11 18 -7 3 4 38 7 78 6 108 -3 112 -4 112 -21 0 -8 5 -12
10 -9 6 4 8 10 5 15 -3 5 7 3 22 -5 15 -8 34 -15 41 -15 6 0 12 -4 12 -10 0
-5 6 -9 13 -7 6 1 11 -4 9 -11 -1 -8 2 -11 8 -7 17 10 82 -35 75 -53 -4 -11
-2 -12 8 -4 10 9 17 6 28 -9 8 -11 29 -37 47 -57 35 -38 68 -91 64 -104 -1 -5
3 -8 9 -8 6 0 9 -7 5 -15 -3 -8 -1 -15 3 -15 5 0 8 -11 7 -25 -2 -13 1 -22 5
-19 5 3 9 -4 9 -15 0 -14 5 -20 18 -18 26 5 72 29 72 38 0 4 8 10 18 13 15 5
40 23 92 68 8 7 17 14 20 14 29 8 50 18 50 24 0 5 12 7 26 5 16 -1 24 2 20 10
-3 8 5 11 22 10 15 -1 33 3 41 9 12 9 13 8 6 -4 -8 -13 -7 -13 8 -1 14 11 17
11 17 0 0 -12 2 -12 9 -1 4 8 14 13 22 12 27 -4 49 0 49 9 0 12 -47 30 -90 35
-19 3 -35 5 -35 6 0 1 -13 4 -30 6 -29 5 -60 24 -39 24 5 0 27 16 49 35 22 19
46 35 53 35 6 0 12 5 12 10 0 6 7 10 15 10 8 0 15 5 15 11 0 5 5 7 10 4 6 -3
10 -2 10 3 0 5 6 9 13 9 27 0 108 36 104 47 -2 6 -9 12 -15 12 -7 1 -15 3 -19
4 -5 1 -12 1 -18 0 -5 -2 -33 -4 -61 -5 -28 -1 -56 -5 -61 -8 -6 -4 -25 -8
-44 -11 -19 -2 -47 -10 -64 -17 -16 -7 -34 -11 -39 -10 -4 1 -14 -4 -22 -10
-8 -6 -14 -9 -14 -6 0 6 -105 -48 -127 -66 -7 -5 -13 -7 -13 -3 0 3 -9 -2 -20
-11 -28 -24 -60 -27 -60 -5 0 17 20 55 20 38 0 -5 11 1 25 14 14 13 25 20 25
17 0 -4 9 1 20 11 12 9 24 17 28 18 11 1 65 23 85 34 10 6 22 8 27 5 6 -4 10
-1 10 4 0 6 5 11 11 11 5 0 7 -6 4 -12 -4 -7 0 -5 9 6 8 10 19 15 24 12 6 -3
13 1 16 9 3 8 9 15 13 14 4 -1 10 -1 13 0 13 5 101 14 147 15 28 0 49 4 46 9
-2 4 1 7 6 7 6 0 11 -5 11 -11 0 -5 4 -7 10 -4 15 9 70 14 70 6 0 -4 19 -6 43
-6 23 1 48 -3 56 -9 11 -8 13 -8 8 1 -5 9 0 10 20 4 16 -4 34 -6 42 -3 9 3 11
0 6 -8 -5 -9 -4 -11 3 -6 23 14 56 16 64 3 6 -9 8 -9 8 1 0 7 5 10 10 7 6 -4
7 -12 3 -18 -4 -7 1 -5 11 3 10 8 28 16 39 18 12 2 29 5 37 7 8 2 19 4 23 4
16 2 -4 21 -36 35 -161 70 -205 80 -372 80 -131 1 -213 -5 -232 -17 -7 -5 -13
-6 -13 -3 0 2 -34 -6 -75 -19 -41 -12 -75 -20 -75 -16 0 3 -4 1 -8 -5 -4 -6
-38 -25 -77 -43 -38 -18 -78 -39 -87 -48 -10 -9 -18 -13 -18 -8 0 4 -8 -3 -17
-14 -23 -28 -78 -38 -86 -16 -12 29 6 51 36 46 5 -1 6 3 2 9 -3 5 -2 10 3 10
5 0 19 9 32 20 12 11 27 17 31 14 5 -3 9 0 9 6 0 7 7 9 16 6 8 -3 13 -2 10 3
-3 4 23 21 58 37 l63 28 -20 38 c-11 20 -24 35 -29 32 -4 -3 -8 2 -8 11 0 19
-37 14 -74 -10 -14 -10 -26 -14 -26 -9 0 4 -9 -2 -20 -14 -12 -12 -25 -22 -31
-22 -5 0 -34 -18 -63 -40 -62 -45 -106 -61 -106 -37 0 8 -5 17 -11 19 -21 7
10 41 77 88 35 25 69 44 74 43 6 -2 10 2 10 7 0 6 7 10 15 10 8 0 15 5 15 12
0 6 -3 8 -6 5 -4 -3 -15 -2 -25 4 -13 7 -19 6 -19 -1 0 -6 -5 -8 -12 -4 -20
13 -73 9 -108 -8z"/>
<path d="M3129 2803 c-13 -16 -12 -17 4 -4 16 13 21 21 13 21 -2 0 -10 -8 -17
-17z"/>
<path d="M1705 2720 c-3 -6 1 -7 9 -4 18 7 21 14 7 14 -6 0 -13 -4 -16 -10z"/>
<path d="M4633 2685 c0 -8 4 -12 9 -9 5 3 6 10 3 15 -9 13 -12 11 -12 -6z"/>
<path d="M1830 2679 c0 -5 5 -7 10 -4 6 3 10 8 10 11 0 2 -4 4 -10 4 -5 0 -10
-5 -10 -11z"/>
<path d="M1876 2638 c3 -5 10 -6 15 -3 13 9 11 12 -6 12 -8 0 -12 -4 -9 -9z"/>
<path d="M1970 2620 c0 -5 5 -10 11 -10 5 0 7 5 4 10 -3 6 -8 10 -11 10 -2 0
-4 -4 -4 -10z"/>
<path d="M2016 2587 c3 -10 9 -15 12 -12 3 3 0 11 -7 18 -10 9 -11 8 -5 -6z"/>
<path d="M1895 2460 c-3 -6 1 -7 9 -4 18 7 21 14 7 14 -6 0 -13 -4 -16 -10z"/>
<path d="M2615 2460 c-3 -6 1 -7 9 -4 18 7 21 14 7 14 -6 0 -13 -4 -16 -10z"/>
<path d="M2415 2405 c-59 -13 -158 -59 -148 -68 3 -4 1 -7 -4 -7 -6 0 -27 -15
-46 -34 -20 -19 -39 -31 -44 -28 -4 4 -5 3 -1 -2 12 -14 -12 -48 -29 -42 -13
5 -13 4 -4 -8 9 -11 8 -17 -3 -29 -8 -8 -13 -17 -10 -20 7 -7 -15 -49 -30 -59
-7 -5 -6 -8 3 -8 11 0 11 -3 1 -15 -10 -12 -10 -15 1 -15 9 0 10 -3 4 -8 -12
-8 -15 -125 -4 -132 5 -3 9 -22 11 -43 1 -20 6 -37 10 -37 4 0 8 -9 8 -20 0
-11 5 -20 10 -20 6 0 10 -5 10 -11 0 -18 54 -89 68 -89 7 0 12 -7 10 -16 -2
-9 8 -23 22 -31 l25 -15 -25 21 c-19 17 -20 20 -5 12 11 -5 30 -19 42 -30 12
-12 26 -21 31 -21 5 0 27 -8 48 -17 22 -9 46 -17 54 -19 76 -11 110 -12 110
-5 0 5 16 5 35 1 22 -5 37 -4 42 3 4 6 1 7 -7 2 -9 -6 -11 -4 -5 4 5 8 11 9
17 3 11 -11 125 41 145 66 7 10 13 14 13 10 0 -4 14 7 31 25 112 116 149 260
107 412 -10 39 -20 76 -20 82 -1 7 -10 15 -20 19 -10 3 -16 9 -13 14 3 5 -6
20 -20 34 -14 14 -25 30 -25 36 0 5 -7 10 -15 10 -9 0 -18 6 -21 14 -5 13
-123 77 -154 83 -46 9 -162 8 -205 -2z m100 -212 c-4 -16 -2 -22 5 -18 8 5 11
-2 10 -30 0 -3 6 -18 14 -34 9 -16 12 -32 8 -35 -13 -14 19 -22 78 -21 36 1
57 -2 53 -8 -4 -6 -1 -7 8 -2 7 5 24 10 37 11 23 3 23 2 7 -16 -10 -11 -26
-22 -37 -26 -11 -3 -28 -14 -37 -23 -10 -10 -27 -24 -39 -33 l-23 -15 31 -84
c16 -45 30 -84 30 -86 0 -2 -31 18 -69 44 -69 46 -101 60 -101 42 0 -13 -59
-41 -72 -33 -7 4 -8 3 -4 -5 8 -12 -33 -53 -46 -45 -4 3 0 24 8 47 9 23 17 47
18 52 2 6 6 22 10 37 6 22 3 32 -18 53 -14 14 -26 23 -26 19 0 -4 -8 3 -19 14
-10 12 -23 22 -29 22 -6 0 -15 6 -19 14 -4 7 -15 16 -23 19 -8 3 2 5 22 3 21
-1 41 -6 44 -9 4 -4 12 -3 18 1 6 3 29 7 51 8 52 2 52 2 53 17 1 25 12 61 19
66 8 6 15 27 16 49 0 6 5 12 10 12 5 0 6 7 3 16 -3 9 -2 12 5 8 6 -3 8 -17 4
-31z"/>
<path d="M2510 2096 c0 -2 8 -10 18 -17 15 -13 16 -12 3 4 -13 16 -21 21 -21
13z"/>
<path d="M2590 1880 c0 -5 5 -10 11 -10 5 0 7 5 4 10 -3 6 -8 10 -11 10 -2 0
-4 -4 -4 -10z"/>
<path d="M2953 2215 c0 -8 4 -12 9 -9 5 3 6 10 3 15 -9 13 -12 11 -12 -6z"/>
<path d="M2974 2161 c0 -16 4 -27 8 -25 4 2 5 14 3 26 -7 32 -13 32 -11 -1z"/>
<path d="M2079 1853 c-13 -16 -12 -17 4 -4 9 7 17 15 17 17 0 8 -8 3 -21 -13z"/>
<path d="M2195 1680 c3 -5 8 -10 11 -10 2 0 4 5 4 10 0 6 -5 10 -11 10 -5 0
-7 -4 -4 -10z"/>
<path d="M2470 1576 c0 -2 8 -10 18 -17 15 -13 16 -12 3 4 -13 16 -21 21 -21
13z"/>
</g>
</svg>
